<svg width="228" height="22" viewBox="0 0 228 22" fill="none" xmlns="http://www.w3.org/2000/svg">
<path d="M92.3997 19.2C113.1 19.2 133.8 19.8 154.5 19C175.1 18.2 195.7 15.9 216.3 13.5C159.2 9.4 102.2 10.2 45.3997 18C45.2997 17.4 45.1996 16.9 45.0996 16.3C46.5996 15.8 48.0996 15 49.6996 14.8C64.0996 13.2 78.4996 11.3 92.9996 10.1C123.5 7.69998 154 5.60002 184.4 3.40002C187.9 3.10002 191.4 2.80005 194.9 1.80005H0.0996094V0.599976H222.8C222.8 0.899976 222.8 1.10002 222.8 1.40002C195.4 3.90002 168 6.40002 140.6 8.90002V9.09998C169.6 9.79998 198.6 10.5 227.6 11.1C217.9 18.3 109.5 24.3 92.2997 19L92.3997 19.2ZM60.9996 13.6C60.9996 14 60.9996 14.3 60.9996 14.7C69.1996 13.9 77.4996 13.1 85.6996 12.3V11.5C77.3996 12.2 69.1997 12.8 60.8997 13.5L60.9996 13.6Z" fill="black"/>
</svg>
