<svg width="233" height="10" viewBox="0 0 233 10" fill="none" xmlns="http://www.w3.org/2000/svg">
<path d="M2.1999 5.5C18.1999 5.5 34.2999 5.4998 50.2999 5.2998C66.2999 5.0998 79.0999 5.0002 93.4999 4.7002C107.3 4.5002 121.1 4.2 134.9 4C149.1 3.8 163.3 3.5999 177.5 3.3999C193.3 3.1999 209.1 3.1001 224.8 3.1001C226.9 3.1001 229.1 3.1001 231.2 3.1001V0.100098C229.3 0.100098 227.4 0.199805 225.5 0.299805C220.3 0.399805 215.1 0.600195 209.9 0.700195C202.2 0.900195 194.5 1.0998 186.8 1.2998C177.4 1.5998 168 1.8001 158.6 2.1001C148.3 2.4001 138 2.7 127.7 3C117.3 3.3 107 3.5999 96.5999 3.8999C86.8999 4.1999 77.1999 4.4002 67.4999 4.7002C59.2999 4.9002 51.0999 5.1999 42.8999 5.3999C36.9999 5.5999 31.0999 5.6999 25.1999 5.8999C19.2999 6.0999 19.5999 6.0001 16.7999 6.1001C13.9999 6.2001 16.5999 6.1001 16.3999 6.1001C14.4999 6.1001 14.4999 9.1001 16.3999 9.1001H215.2C217.9 9.1001 220.6 9.1001 223.3 9.1001C223.4 9.1001 223.5 9.1001 223.6 9.1001C225.5 9.1001 225.5 6.1001 223.6 6.1001H24.7999C22.0999 6.1001 19.3999 5.9001 16.6999 6.1001C13.9999 6.3001 16.4999 6.1001 16.3999 6.1001V9.1001C18.2999 9.1001 20.1999 8.9999 22.0999 8.8999C27.2999 8.7999 32.4999 8.6 37.6999 8.5C45.3999 8.3 53.0999 8.0999 60.7999 7.8999C70.1999 7.5999 79.5999 7.4001 88.9999 7.1001C99.2999 6.8001 109.6 6.5002 119.9 6.2002C130.3 5.9002 140.6 5.5998 151 5.2998C160.7 4.9998 170.4 4.8 180.1 4.5C188.3 4.3 196.5 3.9998 204.7 3.7998C210.6 3.5998 216.5 3.4998 222.4 3.2998C225.2 3.2998 228 3.2001 230.8 3.1001C233.6 3.0001 231 3.1001 231.2 3.1001C233.1 3.1001 233.1 0.100098 231.2 0.100098C215.2 0.100098 199.1 0.0998047 183.1 0.299805C168.7 0.399805 154.3 0.599902 139.9 0.899902C126.1 1.0999 112.3 1.4001 98.4999 1.6001C84.2999 1.8001 70.0999 2.0002 55.8999 2.2002C40.0999 2.4002 24.2999 2.5 8.59987 2.5C6.49987 2.5 4.2999 2.5 2.1999 2.5C0.299902 2.5 0.299902 5.5 2.1999 5.5Z" fill="#63B6A4"/>
</svg>
